<svg id="waves" viewBox="0 0 900 300" width="900" height="300" xmlns="http://www.w3.org/2000/svg" xmlns:xlink="http://www.w3.org/1999/xlink" version="1.1"><rect x="0" y="0" width="900" height="300" fill="#394e37"></rect><path d="M0 168L8.8 168.8C17.7 169.7 35.3 171.3 53 174.5C70.7 177.7 88.3 182.3 106 183.5C123.7 184.7 141.3 182.3 159 179C176.7 175.7 194.3 171.3 212 173C229.7 174.7 247.3 182.3 265 185.2C282.7 188 300.3 186 318 184.3C335.7 182.7 353.3 181.3 371 182.2C388.7 183 406.3 186 423.8 186.5C441.3 187 458.7 185 476.2 181C493.7 177 511.3 171 529 168.8C546.7 166.7 564.3 168.3 582 172.3C599.7 176.3 617.3 182.7 635 185.3C652.7 188 670.3 187 688 187C705.7 187 723.3 188 741 186.2C758.7 184.3 776.3 179.7 794 179.3C811.7 179 829.3 183 847 181.5C864.7 180 882.3 173 891.2 169.5L900 166L900 0L891.2 0C882.3 0 864.7 0 847 0C829.3 0 811.7 0 794 0C776.3 0 758.7 0 741 0C723.3 0 705.7 0 688 0C670.3 0 652.7 0 635 0C617.3 0 599.7 0 582 0C564.3 0 546.7 0 529 0C511.3 0 493.7 0 476.2 0C458.7 0 441.3 0 423.8 0C406.3 0 388.7 0 371 0C353.3 0 335.7 0 318 0C300.3 0 282.7 0 265 0C247.3 0 229.7 0 212 0C194.3 0 176.7 0 159 0C141.3 0 123.7 0 106 0C88.3 0 70.7 0 53 0C35.3 0 17.7 0 8.8 0L0 0Z" fill="#ffc58f"></path><path d="M0 155L8.8 156.2C17.7 157.3 35.3 159.7 53 159.7C70.7 159.7 88.3 157.3 106 157.8C123.7 158.3 141.3 161.7 159 160.7C176.7 159.7 194.3 154.3 212 152.5C229.7 150.7 247.3 152.3 265 152C282.7 151.7 300.3 149.3 318 150.5C335.7 151.7 353.3 156.3 371 158.5C388.7 160.7 406.3 160.3 423.8 157.8C441.3 155.3 458.7 150.7 476.2 149.3C493.7 148 511.3 150 529 149.8C546.7 149.7 564.3 147.3 582 147.3C599.7 147.3 617.3 149.7 635 150.3C652.7 151 670.3 150 688 149.2C705.7 148.3 723.3 147.7 741 147.2C758.7 146.7 776.3 146.3 794 145.8C811.7 145.3 829.3 144.7 847 147.5C864.7 150.3 882.3 156.7 891.2 159.8L900 163L900 0L891.2 0C882.3 0 864.7 0 847 0C829.3 0 811.7 0 794 0C776.3 0 758.7 0 741 0C723.3 0 705.7 0 688 0C670.3 0 652.7 0 635 0C617.3 0 599.7 0 582 0C564.3 0 546.7 0 529 0C511.3 0 493.7 0 476.2 0C458.7 0 441.3 0 423.8 0C406.3 0 388.7 0 371 0C353.3 0 335.7 0 318 0C300.3 0 282.7 0 265 0C247.3 0 229.7 0 212 0C194.3 0 176.7 0 159 0C141.3 0 123.7 0 106 0C88.3 0 70.7 0 53 0C35.3 0 17.7 0 8.8 0L0 0Z" fill="#ffc58f"></path><path d="M0 135L8.8 136C17.7 137 35.3 139 53 140.3C70.7 141.7 88.3 142.3 106 139.5C123.7 136.7 141.3 130.3 159 127.5C176.7 124.7 194.3 125.3 212 127C229.7 128.7 247.3 131.3 265 134.2C282.7 137 300.3 140 318 139.8C335.7 139.7 353.3 136.3 371 136.5C388.7 136.7 406.3 140.3 423.8 141.8C441.3 143.3 458.7 142.7 476.2 140C493.7 137.3 511.3 132.7 529 131.8C546.7 131 564.3 134 582 133C599.7 132 617.3 127 635 128C652.7 129 670.3 136 688 138.7C705.7 141.3 723.3 139.7 741 137.3C758.7 135 776.3 132 794 132.8C811.7 133.7 829.3 138.3 847 138.7C864.7 139 882.3 135 891.2 133L900 131L900 0L891.2 0C882.3 0 864.7 0 847 0C829.3 0 811.7 0 794 0C776.3 0 758.7 0 741 0C723.3 0 705.7 0 688 0C670.3 0 652.7 0 635 0C617.3 0 599.7 0 582 0C564.3 0 546.7 0 529 0C511.3 0 493.7 0 476.2 0C458.7 0 441.3 0 423.8 0C406.3 0 388.7 0 371 0C353.3 0 335.7 0 318 0C300.3 0 282.7 0 265 0C247.3 0 229.7 0 212 0C194.3 0 176.7 0 159 0C141.3 0 123.7 0 106 0C88.3 0 70.7 0 53 0C35.3 0 17.7 0 8.8 0L0 0Z" fill="#ffc58f"></path><path d="M0 109L8.8 110C17.7 111 35.3 113 53 113.3C70.7 113.7 88.3 112.3 106 111.5C123.7 110.7 141.3 110.3 159 111.3C176.7 112.3 194.3 114.7 212 113.3C229.7 112 247.3 107 265 105.2C282.7 103.3 300.3 104.7 318 105.5C335.7 106.3 353.3 106.7 371 107.3C388.7 108 406.3 109 423.8 109.3C441.3 109.7 458.7 109.3 476.2 109.8C493.7 110.3 511.3 111.7 529 111.5C546.7 111.3 564.3 109.7 582 110.2C599.7 110.7 617.3 113.3 635 115C652.7 116.7 670.3 117.3 688 116C705.7 114.7 723.3 111.3 741 111.3C758.7 111.3 776.3 114.7 794 114.8C811.7 115 829.3 112 847 112C864.7 112 882.3 115 891.2 116.5L900 118L900 0L891.2 0C882.3 0 864.7 0 847 0C829.3 0 811.7 0 794 0C776.3 0 758.7 0 741 0C723.3 0 705.7 0 688 0C670.3 0 652.7 0 635 0C617.3 0 599.7 0 582 0C564.3 0 546.7 0 529 0C511.3 0 493.7 0 476.2 0C458.7 0 441.3 0 423.8 0C406.3 0 388.7 0 371 0C353.3 0 335.7 0 318 0C300.3 0 282.7 0 265 0C247.3 0 229.7 0 212 0C194.3 0 176.7 0 159 0C141.3 0 123.7 0 106 0C88.3 0 70.7 0 53 0C35.3 0 17.7 0 8.8 0L0 0Z" fill="#ffc58f"></path><path d="M0 97L8.8 97.3C17.7 97.7 35.3 98.3 53 95.8C70.7 93.3 88.3 87.7 106 86.3C123.7 85 141.3 88 159 90.5C176.7 93 194.3 95 212 95.2C229.7 95.3 247.3 93.7 265 94C282.7 94.3 300.3 96.7 318 96.8C335.7 97 353.3 95 371 93.5C388.7 92 406.3 91 423.8 89.8C441.3 88.7 458.7 87.3 476.2 86.3C493.7 85.3 511.3 84.7 529 83.8C546.7 83 564.3 82 582 81.5C599.7 81 617.3 81 635 84C652.7 87 670.3 93 688 94.5C705.7 96 723.3 93 741 92.5C758.7 92 776.3 94 794 94.5C811.7 95 829.3 94 847 92.5C864.7 91 882.3 89 891.2 88L900 87L900 0L891.2 0C882.3 0 864.7 0 847 0C829.3 0 811.7 0 794 0C776.3 0 758.7 0 741 0C723.3 0 705.7 0 688 0C670.3 0 652.7 0 635 0C617.3 0 599.7 0 582 0C564.3 0 546.7 0 529 0C511.3 0 493.7 0 476.2 0C458.7 0 441.3 0 423.8 0C406.3 0 388.7 0 371 0C353.3 0 335.7 0 318 0C300.3 0 282.7 0 265 0C247.3 0 229.7 0 212 0C194.3 0 176.7 0 159 0C141.3 0 123.7 0 106 0C88.3 0 70.7 0 53 0C35.3 0 17.7 0 8.8 0L0 0Z" fill="#ffc58f"></path><path d="M0 62L8.8 64.3C17.7 66.7 35.3 71.3 53 73.3C70.7 75.3 88.3 74.7 106 74.7C123.7 74.7 141.3 75.3 159 72.8C176.7 70.3 194.3 64.7 212 63.2C229.7 61.7 247.3 64.3 265 65C282.7 65.7 300.3 64.3 318 62.7C335.7 61 353.3 59 371 61.2C388.7 63.3 406.3 69.7 423.8 72.3C441.3 75 458.7 74 476.2 73.3C493.7 72.7 511.3 72.3 529 70.3C546.7 68.3 564.3 64.7 582 64.3C599.7 64 617.3 67 635 68.2C652.7 69.3 670.3 68.7 688 69.2C705.7 69.7 723.3 71.3 741 71.3C758.7 71.3 776.3 69.7 794 69.8C811.7 70 829.3 72 847 71.8C864.7 71.7 882.3 69.3 891.2 68.2L900 67L900 0L891.2 0C882.3 0 864.7 0 847 0C829.3 0 811.7 0 794 0C776.3 0 758.7 0 741 0C723.3 0 705.7 0 688 0C670.3 0 652.7 0 635 0C617.3 0 599.7 0 582 0C564.3 0 546.7 0 529 0C511.3 0 493.7 0 476.2 0C458.7 0 441.3 0 423.8 0C406.3 0 388.7 0 371 0C353.3 0 335.7 0 318 0C300.3 0 282.7 0 265 0C247.3 0 229.7 0 212 0C194.3 0 176.7 0 159 0C141.3 0 123.7 0 106 0C88.3 0 70.7 0 53 0C35.3 0 17.7 0 8.8 0L0 0Z" fill="#ffc58f"></path><path d="M0 52L8.8 50.3C17.7 48.7 35.3 45.3 53 45C70.7 44.7 88.3 47.3 106 47.3C123.7 47.3 141.3 44.7 159 43C176.7 41.3 194.3 40.7 212 42.2C229.7 43.7 247.3 47.3 265 48.7C282.7 50 300.3 49 318 48.2C335.7 47.3 353.3 46.7 371 45C388.7 43.3 406.3 40.7 423.8 40.5C441.3 40.3 458.7 42.7 476.2 42.5C493.7 42.3 511.3 39.7 529 40.7C546.7 41.7 564.3 46.3 582 47.7C599.7 49 617.3 47 635 45C652.7 43 670.3 41 688 41.7C705.7 42.3 723.3 45.7 741 46.8C758.7 48 776.3 47 794 46.7C811.7 46.3 829.3 46.7 847 47.5C864.7 48.3 882.3 49.7 891.2 50.3L900 51L900 0L891.2 0C882.3 0 864.7 0 847 0C829.3 0 811.7 0 794 0C776.3 0 758.7 0 741 0C723.3 0 705.7 0 688 0C670.3 0 652.7 0 635 0C617.3 0 599.7 0 582 0C564.3 0 546.7 0 529 0C511.3 0 493.7 0 476.2 0C458.7 0 441.3 0 423.8 0C406.3 0 388.7 0 371 0C353.3 0 335.7 0 318 0C300.3 0 282.7 0 265 0C247.3 0 229.7 0 212 0C194.3 0 176.7 0 159 0C141.3 0 123.7 0 106 0C88.3 0 70.7 0 53 0C35.3 0 17.7 0 8.8 0L0 0Z" fill="#ffc58f"></path><path d="M0 32L8.8 30.3C17.7 28.7 35.3 25.3 53 25.2C70.7 25 88.3 28 106 29.2C123.7 30.3 141.3 29.7 159 29.2C176.7 28.7 194.3 28.3 212 28.7C229.7 29 247.3 30 265 28.7C282.7 27.3 300.3 23.7 318 22.5C335.7 21.3 353.3 22.7 371 22.7C388.7 22.7 406.3 21.3 423.8 20.5C441.3 19.7 458.7 19.3 476.2 18.5C493.7 17.7 511.3 16.3 529 18C546.7 19.7 564.3 24.3 582 26.8C599.7 29.3 617.3 29.7 635 29.5C652.7 29.3 670.3 28.7 688 26C705.7 23.3 723.3 18.7 741 18.7C758.7 18.7 776.3 23.3 794 25.8C811.7 28.3 829.3 28.7 847 29.2C864.7 29.7 882.3 30.3 891.2 30.7L900 31L900 0L891.2 0C882.3 0 864.7 0 847 0C829.3 0 811.7 0 794 0C776.3 0 758.7 0 741 0C723.3 0 705.7 0 688 0C670.3 0 652.7 0 635 0C617.3 0 599.7 0 582 0C564.3 0 546.7 0 529 0C511.3 0 493.7 0 476.2 0C458.7 0 441.3 0 423.8 0C406.3 0 388.7 0 371 0C353.3 0 335.7 0 318 0C300.3 0 282.7 0 265 0C247.3 0 229.7 0 212 0C194.3 0 176.7 0 159 0C141.3 0 123.7 0 106 0C88.3 0 70.7 0 53 0C35.3 0 17.7 0 8.8 0L0 0Z" fill="#ffc58f"></path></svg>